<svg xmlns="http://www.w3.org/2000/svg" viewBox="0 0 1416 620"><g id="cadre-planetscore"><path d="M392.8,95.07c-.1-.2-15.48-20.09-42.66-39.57-24.68-17.78-64.54-39.07-114.3-39.07-50.55,0-102.21,21.29-141.77,58.35a208,208,0,0,0-46.26,62.85,177.91,177.91,0,0,0-17.29,76.13v.5C26,293.89,77.58,355,78.18,355.63l2,2.4V551.36a51.83,51.83,0,0,0,51.75,51.76h959.85V98.36H395.3Z" style="fill:#fff"/><g id="cadre"><path d="M403.59,81.38a250,250,0,0,0-43-39.37C333.75,22.63,290.29-.55,235.84-.55c-54.85,0-110.7,23-153.46,62.94a222.87,222.87,0,0,0-50,68,194.64,194.64,0,0,0-19,83C9.24,291.59,52.9,351.24,63.19,364.13V551.26A68.8,68.8,0,0,0,131.93,620h976.84V81.38ZM173.4,27.43c2.09,1.29-1.3,2.69-4.7,3.79a73.84,73.84,0,0,0-11.49,2.7c-2.2.7-4.3,1.5-6.09,2.2a203.33,203.33,0,0,1,22-8.89C173.2,27.23,173.3,27.33,173.4,27.43ZM327.26,75c6.19.5,5.69,3.6,11.79,3.6s13.89,5.69,17,8.69-2.59,5.2-7.19,3.6,0-3.6-4.6-1.6c-3.69,1.7-12,0-15.18-.7a1.46,1.46,0,0,1-.9-.6,2.11,2.11,0,0,1-.4-1C327.46,80.38,321.56,74.48,327.26,75Zm43.66,12.39c4.1,6.5,5.2,1.5,12.39,7.2a30.18,30.18,0,0,1,8.49,16.48,2.15,2.15,0,0,1,0,.8,1.61,1.61,0,0,1-.4.7,2.09,2.09,0,0,1-.6.4,2,2,0,0,1-.8.1,9.63,9.63,0,0,1-5.29-2,10.9,10.9,0,0,1-3.3-4.59c-3-7.7-2.9-4.7-8.89-10.7a47.3,47.3,0,0,1-8.29-11.19,24.14,24.14,0,0,1-3.6-7.19C360.33,72.59,366.82,80.88,370.92,87.37ZM1091.78,603H131.93a51.83,51.83,0,0,1-51.75-51.76V357.93l-2-2.4c-.5-.6-52.15-61.74-47.66-141.37v-.5a176.14,176.14,0,0,1,17.39-76,203,203,0,0,1,21.38-35.37c5.39-4.4,6.39-5.5,17.38-8.09,5.5-1.4,13.89-3.5,12.39,6.19,0,.7.8,1,1.2,1.4a2.07,2.07,0,0,0,1,.6,2.46,2.46,0,0,0,1.2.1c2.9-.4,2.7,1.8,5.59-.3,7.7-5.7,16.89-18.38,28.28-21.38s18.48,3.1,24.78,0,9.19-5.4,6.19-8.49-5.29-4.6-.6-7c6.8-3.4,10-3.7,11.29-2.8a4.24,4.24,0,0,0,1.9.6,4.42,4.42,0,0,0,2-.2l4.49-1.4a5.46,5.46,0,0,0,2-1.09,4.9,4.9,0,0,0,1.1-2,4.5,4.5,0,0,0-.1-2.3,5,5,0,0,0-1.3-1.9,3,3,0,0,1-.8-1.6,2.89,2.89,0,0,1,.3-1.8l4.1-7.19c.4-.7,1.9-.5,1.9-1.3,0-7.39,12.09-3.1,18-3.79A30.93,30.93,0,0,0,224,35.92c7.69-2.1.3-4.4,7.19-5.2s14-4.09,14-6.59-20.68,1.4-28.37.9a71.48,71.48,0,0,0-18.89,3.09,1.68,1.68,0,0,0-.7-.49c-3.59-2.1-9.29-4.7-5.09-5.7,1.2-.5,2.4-.9,3.7-1.4a188.26,188.26,0,0,1,40.06-4.39,176.11,176.11,0,0,1,46,6.09c-6.49,1.5-13.29,4-16.69,8.29-6.19,7.7-11.29,1-10.79,8.79s-1,7.7,4.1,8.3,13.49-2.1,12.39,1,8.29,4.09-1.6,6.69-2.6-3.6-9.79,2.6-3.6,5.69-8.29,7.69-14.39-.5-15.39,3.1S245,74.38,242.43,79s-8.29,3.1-15.48,4.6S215.66,87.67,215.06,96c-.4,7.2,11.89,5.8,14.49,8.3a3.75,3.75,0,0,0,2,1.2c5.4.4,10.89.4,12.39-2.8,3-7,0-12.89,7.7-13.89s5.69-1.6,9.29-4.6-.5-3.09,8.29-2.09,22.68,7.69,20.68,10.29S278,97,285.8,99.06s10.29,3.5,13.38-1,3.6-5.69,1-7.69-12.39-7.69-7.19-6.69,16,8.79,22.68,19.08.5-6.2,5.2-7.2,7.69,10.8,16,11.29,14.39-.49,16,3.6,6.19,15.49-2.1,11.79c-12.89-5.69-16.49,1-11.79,3.6l7.39,6.09a6.08,6.08,0,0,0,1.8.9,4.49,4.49,0,0,0,2,0,15.47,15.47,0,0,1,3.1-.6l1.5-.4,3.09-1.4a4.31,4.31,0,0,1,2.2-.4,4.85,4.85,0,0,1,2.1.8c1.9,1.5,4.09,3.5,6.39,5.7a2.1,2.1,0,0,0,1.1.4,1.5,1.5,0,0,0,1.1-.4,20.68,20.68,0,0,0,7.19-6.3,6.42,6.42,0,0,1,4.7-3.49l10.69-2.2a33.3,33.3,0,0,1,8.79-1.2h5.5a1.08,1.08,0,0,0,.8-.2c.2-.2.5-.3.6-.6l2.79-4.1a2.62,2.62,0,0,0,.3-1.19,5.26,5.26,0,0,1,.3-3.5,12.85,12.85,0,0,1,3.4-.7c1.7-2.1,3.2-4.1,4.8-5.7-1.9-3.09-3.8-6.09-5.8-9.09H1092V603Z" style="fill:#c7ddf3"/><path d="M222.35,47.21a74.74,74.74,0,0,1,11.59,0v1.5c1.7,9.19,1.6,3.59,4.1,6.69s-6,9.79,2.3,5.2c4.09-2.4,11.79,3.59,9.79-1.6s-8.59-9.09-9.29-10.79-4.4-5-6.1-3.9c-3.3-2.9-3.6-2.8-5.69-2.8S218,47.91,222.35,47.21Z" style="fill:#c7ddf3"/><path d="M222,64.39c3.6.5,7.9,0,8.8-3.09s5.19-5.4,0-5.7a10.19,10.19,0,0,0-5.2.1,11.49,11.49,0,0,0-4.6,2.5C217.86,60.8,222,64.39,222,64.39Z" style="fill:#c7ddf3"/></g><g id="score"><path d="M118.94,239.94a40.49,40.49,0,0,1,7.1.8,21.29,21.29,0,0,1,7.09,2.59,5.39,5.39,0,0,1,3,4.7,6,6,0,0,1-1.6,4.3,5.54,5.54,0,0,1-4.3,1.79,8.18,8.18,0,0,1-2.59-.4c-.9-.3-1.9-.59-2.9-.89s-2-.6-3-.8a16.86,16.86,0,0,0-3.3-.3,9.24,9.24,0,0,0-5.09,1.4,4.4,4.4,0,0,0-2.1,3.79q0,2.55,4.8,4.2c3.19,1,6.79,2.2,10.69,3.4a25.06,25.06,0,0,1,9.89,5.49c2.7,2.5,4.09,6.09,4.09,10.89a16.37,16.37,0,0,1-3.09,9.89,20.1,20.1,0,0,1-8.2,6.7,26.64,26.64,0,0,1-11.29,2.29,53.69,53.69,0,0,1-14.48-2c-4.6-1.4-7-3.7-7-7.1a5.54,5.54,0,0,1,1.6-4.09,5.73,5.73,0,0,1,4.3-1.6,9.47,9.47,0,0,1,2.8.4c1,.3,2.39.7,4,1.2s3,.89,4.2,1.19a15.81,15.81,0,0,0,3.8.4,12.23,12.23,0,0,0,4.89-.9,6.45,6.45,0,0,0,3.1-2.49,6.63,6.63,0,0,0,1.1-3.6c0-2.1-.8-3.4-2.4-4s-5.2-1.79-10.79-3.39-9.79-3.5-12.39-5.7-3.9-5.29-3.9-9.59a16.16,16.16,0,0,1,3-9.69,19.52,19.52,0,0,1,8-6.4A24.73,24.73,0,0,1,118.94,239.94Z" style="fill:#222d56"/><path d="M147.62,269.81a29.82,29.82,0,0,1,8.49-21.38,28.66,28.66,0,0,1,9.59-6.3A32.63,32.63,0,0,1,178,239.94a48.22,48.22,0,0,1,6.1.5,29.66,29.66,0,0,1,6.19,1.5,14,14,0,0,1,4.8,2.79,5.62,5.62,0,0,1,1.9,4.4,4.92,4.92,0,0,1-1.6,3.8,5.31,5.31,0,0,1-3.9,1.59,13.38,13.38,0,0,1-4-.9c-1.7-.59-3.19-1.09-4.39-1.39a22.37,22.37,0,0,0-5.1-.5,18.07,18.07,0,0,0-7.19,1.4,15.65,15.65,0,0,0-5.2,3.89,18.38,18.38,0,0,0-3.19,5.9,23.51,23.51,0,0,0-1.1,7.19,19.14,19.14,0,0,0,4.39,12.79c2.9,3.4,7,5.19,12.19,5.19a18.07,18.07,0,0,0,5.2-.6c1.3-.39,2.79-1,4.69-1.69a13,13,0,0,1,4.2-1.1,5.28,5.28,0,0,1,4.3,1.9,6.29,6.29,0,0,1,1.59,3.59,6.45,6.45,0,0,1-3.29,5.7,23,23,0,0,1-7.9,3,44.94,44.94,0,0,1-8.69.9,31.28,31.28,0,0,1-15.68-3.89,28,28,0,0,1-10.79-10.79A31.06,31.06,0,0,1,147.62,269.81Z" style="fill:#222d56"/><path d="M235.54,299.68a31.24,31.24,0,0,1-15.69-3.89A28.11,28.11,0,0,1,209.06,285a30.13,30.13,0,0,1-3.89-15.09,30.9,30.9,0,0,1,2.2-11.79,30.5,30.5,0,0,1,6.29-9.59,28.56,28.56,0,0,1,9.59-6.3,34.56,34.56,0,0,1,24.48.1,28.26,28.26,0,0,1,9.69,6.4,28.56,28.56,0,0,1,6.3,9.59,30.07,30.07,0,0,1,2.19,11.59,30.58,30.58,0,0,1-2.19,11.69,28.64,28.64,0,0,1-16,16A34.51,34.51,0,0,1,235.54,299.68Zm0-11.19a16.62,16.62,0,0,0,7.19-1.49,14.3,14.3,0,0,0,5.3-4.1,17.17,17.17,0,0,0,3.1-6,23.33,23.33,0,0,0,1-7.09,21.75,21.75,0,0,0-1.9-9.29,16.44,16.44,0,0,0-5.7-6.8,15.76,15.76,0,0,0-9.09-2.59,16,16,0,0,0-9.09,2.59,16.44,16.44,0,0,0-5.7,6.8,21.9,21.9,0,0,0-1.89,9.29c0,5.3,1.39,9.79,4.29,13.29S230.15,288.49,235.54,288.49Z" style="fill:#222d56"/><path d="M275,292.89V247.23a6.64,6.64,0,0,1,1.69-4.7,7.34,7.34,0,0,1,5.1-1.69h15.49c7,0,12.49,1.49,16.28,4.49s5.7,7.6,5.7,13.89a12.43,12.43,0,0,1-1.3,5.89,13.11,13.11,0,0,1-3.5,4.6,18,18,0,0,1-5.19,3.1,25,25,0,0,1-6.4,1.7L318,289.29a5,5,0,0,1,1.7,3.6,5.7,5.7,0,0,1-1.9,4.3,6.29,6.29,0,0,1-4.7,1.89A6.61,6.61,0,0,1,308,297l-19.59-21.78h-.1v17.58a6.13,6.13,0,0,1-1.79,4.7,6.84,6.84,0,0,1-4.8,1.59,7.26,7.26,0,0,1-4.8-1.69A5.44,5.44,0,0,1,275,292.89Zm13.28-40.76v14.38h9.1a9.17,9.17,0,0,0,6-1.9,6.56,6.56,0,0,0,2.3-5.29,6.46,6.46,0,0,0-2.3-5.3,9.4,9.4,0,0,0-6-1.89Z" style="fill:#222d56"/><path d="M327.76,292.59V247.93a7.22,7.22,0,0,1,1.8-5.1,6.58,6.58,0,0,1,5.09-1.89h21.88a6.07,6.07,0,0,1,4.6,1.69,5.35,5.35,0,0,1,1.6,4,5.55,5.55,0,0,1-.7,2.8,5.78,5.78,0,0,1-2.1,2,7.12,7.12,0,0,1-3.4.8H341V264h14.48a6.52,6.52,0,0,1,4.8,1.59,5.44,5.44,0,0,1,1.7,4,5.38,5.38,0,0,1-1.7,3.9,6.6,6.6,0,0,1-4.7,1.7H341.05v12.28h16.38a6.39,6.39,0,0,1,4.7,1.6,5.35,5.35,0,0,1,1.6,4,5.44,5.44,0,0,1-.7,2.7,5,5,0,0,1-2.2,2.1,7.12,7.12,0,0,1-3.4.79H334.65a7.26,7.26,0,0,1-4.89-1.69A5.27,5.27,0,0,1,327.76,292.59Z" style="fill:#222d56"/></g><g id="planet"><path d="M46.51,145.72c-1.5.6-3.1,1.3-4.6,2a.1.1,0,0,0-.1.1c1.1.2,2.4.3,3.6.4C45.81,147.32,46.11,146.52,46.51,145.72Z" style="fill:none"/><path d="M90.67,163.6h.8c.4,0,.8.1,1.2.1a13.23,13.23,0,0,0,7.69-2.39,14,14,0,0,0,5.5-7.4l.2-.5.2-.5a12.54,12.54,0,0,0,1.09-4.69,11,11,0,0,0-.79-4.7,13.13,13.13,0,0,0-2.5-4.09,12.14,12.14,0,0,0-3.9-2.8H100a21.54,21.54,0,0,0-7.09-2.1c-3.5,8.29-7.2,16.49-10.69,24.38-.9,2.1-1.9,4.19-2.8,6.19-.6,1.4-1.2,2.7-1.8,4.1l.3-.3C80.38,166.7,84,163.6,90.67,163.6Z" style="fill:none"/><path d="M106.56,115.85c-1.2,0-2.4,0-3.7.1-4.2.3-8.49.9-12.89,1.6a11.57,11.57,0,0,0-.5-5.2,11.3,11.3,0,0,0-2.9-4.3c-.7-.7-2.3-1-4.19-1-8.4,0-24.68,5.3-21.78,8.1a11.46,11.46,0,0,1,2.19,4.19,9.75,9.75,0,0,1,0,4.8c-6.19,1.9-12.29,4.2-18.28,6.39a134.21,134.21,0,0,0-25.18,12.29C15,145.62,7.84,150.32,7.54,156,7,164.8,21.93,166.9,28.12,167.2c1.2.1,2.4.1,3.6.1a88.53,88.53,0,0,0,14.49-1.2c-.6,1.5-1.3,3-2,4.4-8.49,18.88-15.89,38.06-20.78,51.65a16.14,16.14,0,0,0-.7,10.39c1.7,9.49,3.5,14.59,4.7,15.29,3.89-1.3,5.39-4.4,7.29-8.49C46.91,214,60.6,187.58,72.09,161.91c4.79-10.69,9.59-21.09,14.08-32a35.26,35.26,0,0,0,1.4-3.49c.7,0,1.4-.1,2.1-.1a31.27,31.27,0,0,1,13.69,3.09,20.86,20.86,0,0,1,6.39,4.6,20.12,20.12,0,0,1,5.5,14.49,20.15,20.15,0,0,1-1.8,7.69,21.73,21.73,0,0,1-8.69,11.69,22.13,22.13,0,0,1-12.19,3.7,12.1,12.1,0,0,1-1.9-.1c-5.3,0-6.59,3-10.89,6-1.4.9-8.49,5.5-3,5.5,22.88,0,53.55-10.39,61.55-34.27C145.82,126.34,125.64,115.85,106.56,115.85ZM58.6,138c-2.6,6.09-5.3,12.09-7.9,18.08H45.31c-4.2-.2-16.89-1.7-16.19-8.49.4-3.6,6.6-5.9,9.5-7.29a155.13,155.13,0,0,1,22-7.9C59.9,134.73,59.2,136.53,58.6,138Z" style="fill:#222d56"/><path d="M142.72,123.24c-7-9.69-20.48-15.49-36.06-15.49-1.4,0-2.8.1-4.2.2h0c-1.9.2-3.8.3-5.8.6A19.69,19.69,0,0,0,92,102.16c-2.2-2-5.3-3-9.49-3h0A55.45,55.45,0,0,0,66.69,102c-10.09,3.2-12.59,6.39-13.69,9.19a9,9,0,0,0,.5,7.69c-3.1,1.1-6.09,2.2-9,3.2l-2.7,1a146.15,146.15,0,0,0-26.67,13h-.2c-5.2,3.4-14.89,9.69-15.39,19.38a14.84,14.84,0,0,0,3.9,10.89c6.39,7.1,19.08,8.49,24.27,8.69,1.4.1,2.7.1,4,.1h1.6c-8,18.59-14.29,35.07-17.48,44a24,24,0,0,0-1,15c3,16,5.49,18.69,8.29,20.38l3.1,1.9,3.49-1.1c7.1-2.29,9.79-7.79,11.89-12.29l.2-.3c4.4-9.09,9-18.48,13.49-27.57s9-18.28,13.49-27.48c1.4,1.7,3.8,3.3,8,3.3,26.88,0,60.05-12.39,69.14-39.76C150.32,138,146.62,128.74,142.72,123.24Zm-4.39,25.58c-8,23.88-38.67,34.27-61.55,34.27-5.39,0,1.6-4.6,3-5.5,4.3-2.9,5.59-6,10.89-6a12.1,12.1,0,0,0,1.9.1,21.81,21.81,0,0,0,20.88-15.39,20.15,20.15,0,0,0,1.8-7.69,18.85,18.85,0,0,0-1.3-7.8,19.53,19.53,0,0,0-4.2-6.69,20.86,20.86,0,0,0-6.39-4.6,32.73,32.73,0,0,0-13.69-3.09,14.77,14.77,0,0,0-2.1.1c-.5,1.2-1,2.4-1.4,3.49-4.49,10.89-9.29,21.39-14.08,32-11.59,25.47-25.28,52-37.47,77.23-1.9,4-3.4,7.19-7.29,8.49-1.2-.7-2.9-5.79-4.7-15.29a16.14,16.14,0,0,1,.7-10.39c4.89-13.59,12.39-32.67,20.78-51.65.7-1.5,1.4-3,2-4.4a87.63,87.63,0,0,1-14.49,1.2c-1.2,0-2.4,0-3.6-.1-6.19-.3-21.08-2.4-20.58-11.19.3-5.69,7.5-10.39,11.79-13.09a131.29,131.29,0,0,1,25.18-12.29c6-2.19,12.09-4.39,18.28-6.39a9.75,9.75,0,0,0,0-4.8,9.55,9.55,0,0,0-2.19-4.19c-2.9-2.7,13.38-8.1,21.78-8.1,1.89,0,3.49.3,4.19,1a10.59,10.59,0,0,1,2.9,4.3,10.11,10.11,0,0,1,.5,5.2c4.5-.7,8.69-1.3,12.89-1.6,1.2-.1,2.4-.1,3.7-.1C125.64,115.85,145.82,126.34,138.33,148.82ZM77.48,169.3c.6-1.4,1.2-2.7,1.8-4.1.9-2.1,1.9-4.19,2.8-6.19,3.59-7.89,7.19-16.09,10.69-24.38a22.28,22.28,0,0,1,7.09,2.1h.2a12.14,12.14,0,0,1,3.9,2.8,11.5,11.5,0,0,1,2.5,4.09,12.76,12.76,0,0,1,.79,4.7,13,13,0,0,1-1.09,4.69l-.2.5-.2.5a13.93,13.93,0,0,1-13.19,9.79,4.87,4.87,0,0,1-1.2-.1h-.8c-6.69,0-10.29,3.1-12.89,5.4Z" style="fill:#fff"/><path d="M29.12,147.62c-.8,6.69,11.89,8.19,16.19,8.49H50.7c2.7-6,5.3-12,7.9-18.08a41.42,41.42,0,0,0,2-5.5,155.13,155.13,0,0,0-22,7.9C35.72,141.72,29.52,144,29.12,147.62Zm12.79,0c1.5-.7,3-1.3,4.6-2-.4.8-.7,1.6-1.1,2.4a30.92,30.92,0,0,1-3.5-.4C41.81,147.72,41.91,147.72,41.91,147.62Z" style="fill:#fff"/><path d="M465.74,139.93l-10.59.4c-6.9,0-13.89.29-20.79.29,1.8-2.79,3.5-5.59,5.4-8.49l1.1-1.5a4.66,4.66,0,0,0,.8-2.59,5,5,0,0,0-.8-2.6l-7.69-10.39c-.2-.2-.3-.4-.6-.5s-.5-.2-.7-.3a2.2,2.2,0,0,0-.8.1,2.51,2.51,0,0,0-.7.4,125.22,125.22,0,0,0-19.08,25.08c-4-.4-7.8-.8-14.69-1a40.83,40.83,0,0,0-18.19,6.29c-1.49,1-7.19,5.9-2,6,11.49.2,18.28.3,27.67.4a227.18,227.18,0,0,0-21.78,43.16,23.7,23.7,0,0,0-3.6,2.49,73.14,73.14,0,0,1-20.58,12.89c-8,3.2-21.88,3.1-25.68-4.79A65.07,65.07,0,0,0,367.92,191c5.5-4.8,12.29-14.69,5.7-21.08s-20.38-3.2-28.28,0c-15,5.79-33.07,19.58-35.07,37a8,8,0,0,0,0,2.19c-4.39,3.6-11,7.5-13.08,2.4s2-13,3.59-17.48c2.2-6.6,11.29-23.78-2.49-21.58-14.69,2.39-26,14.48-36.17,24.08-3.3,3.09-6.7,6.29-10.09,9.39,1.3-11.09,10.39-23.18,16.58-32.17,2.7-4.2-3.4-3.2-5.69-2.7a25.59,25.59,0,0,0-14.19,7.29,125.8,125.8,0,0,0-16.49,28.88c-3,2.29-7.19,5.49-9.19,5.09-3.79-.9-4.19-5.79-4.19-9a56.89,56.89,0,0,1,4.79-18.08c1.6-4.2,5.9-10.3,1.8-14.39-8.69-8.49-31.07-.5-39.37,3.4a44.22,44.22,0,0,0-22.38,20.88,66.16,66.16,0,0,0-2.89,7.29,23.65,23.65,0,0,0-1.1,5.89,53.66,53.66,0,0,1-14,7.9,4.93,4.93,0,0,1-3.2-1.4c-2.79-2.5-2.39-8.09-2.19-11.39a69.17,69.17,0,0,1,3-16.89,152.82,152.82,0,0,0,65.24-67.84c3.3-6.09,4.2-14.48-4.89-15.08-19-1.2-38.67,15.28-50.66,28.77A146,146,0,0,0,127.44,175q-1.5,3.75-2.7,7.5a67.49,67.49,0,0,1-12.69,3.59c-.4.3-9.79,9.9-7.89,10.4h.3a87.33,87.33,0,0,0,17.48-4.2c-1.2,4.6-2.2,9.29-3,14-.9,5.59-2.39,13.58,1.4,18.28,7.7,9.59,27-.6,35-5l6-3.49a9.5,9.5,0,0,0,1.6,1.9,16.34,16.34,0,0,0,12,2.09,68.7,68.7,0,0,0,22.58-6.59,10.47,10.47,0,0,0,2.9,7.09c4.2,4.2,11.89,2.6,17.09,1.3a72.63,72.63,0,0,0,13.38-5.19c1.5,11.79,24.78-1.4,30.68-6,6.79-5.29,13-11.39,19.28-17.28l2.5-2.2c-.7,2.1-1.5,4.2-2.2,6.19-2.2,6.4-5.69,13.79-5.1,20.79.8,9.79,14.49,6.39,20.89,4.79a80.59,80.59,0,0,0,16.28-6.29c6.8,8.89,26.28,6.79,35.87,4.19a123.8,123.8,0,0,0,32-14.18c0,9.29,4.2,17.88,15.49,19,16.18,1.6,35.07-6.49,48.66-15.79,1.19-.8-3.5-6.19-5.4-5.49a29.1,29.1,0,0,0-8.49,4.89c-6.7,5.1-20.78,9.2-26.38.7-4.8-7.29,1.8-16.88,5.3-25a250.13,250.13,0,0,1,13.88-27.38q1.95-3.3,4.2-6.59a307.43,307.43,0,0,0,40.56-6.1c1.4-.3,2.3.5,8.2-4.59C478.33,138.93,471.43,139.53,465.74,139.93Zm-112.4,40.26c3.79,4.2-.4,12.39-3.9,13.79a39.46,39.46,0,0,1-15.29,1H333C336.15,186.18,345.74,171.3,353.34,180.19ZM164.4,139.73a103.17,103.17,0,0,1,20.29-22s4.19-3.4,5-1.1a8.42,8.42,0,0,1-.5,5.19c-4.59,12.69-15.78,25.68-24.58,35a226.17,226.17,0,0,1-16.88,15.49,188.73,188.73,0,0,1,16.68-32.57Zm39.07,49a98.37,98.37,0,0,0-4.5,12.89c-.3.9-.5,1.9-.8,2.9l-2.29,1.6c-3.7,2.69-8.9,4.19-11.29,3-4.9-3-3.9-8.69-2.5-13.58a38.63,38.63,0,0,1,6.39-13.59,7.22,7.22,0,0,1,2.9-2,8.42,8.42,0,0,1,3.5-.7h3.69a8.6,8.6,0,0,1,4.2.9c2.9,1.7,2.6,3.9.7,8.59Z" style="fill:#222d56"/></g></g><g id="pesticides"><path d="M113.85,398.4V365.83a4.15,4.15,0,0,1,4.49-4.5h10.2a17.3,17.3,0,0,1,7.59,1.7,12.55,12.55,0,0,1,5.29,4.89,13.36,13.36,0,0,1,1.9,7.2,14.8,14.8,0,0,1-1.1,5.69,11.31,11.31,0,0,1-3.09,4.3,13.31,13.31,0,0,1-4.6,2.7,16.86,16.86,0,0,1-5.59,1h-6.4v9.5a4.44,4.44,0,0,1-1.2,3.29,4.59,4.59,0,0,1-6.19,0A3.79,3.79,0,0,1,113.85,398.4Zm8.69-29.48v12.29h5.9a5.79,5.79,0,0,0,4.29-1.7,6,6,0,0,0,1.7-4.39,6.17,6.17,0,0,0-.7-3.1,5.56,5.56,0,0,0-2.1-2.2,6.49,6.49,0,0,0-3.09-.8l-6-.1Z" style="fill:#222d56"/><path d="M148.42,398.2V366.32a5.66,5.66,0,0,1,1.2-3.69,4.29,4.29,0,0,1,3.39-1.4H167.4a3.77,3.77,0,0,1,3,1.2,4.11,4.11,0,0,1,1.1,2.8,4.51,4.51,0,0,1-.5,2,4,4,0,0,1-3.6,2.1H157.21v8.39h9.49a3.85,3.85,0,0,1,3.1,1.2,4.17,4.17,0,0,1,1.1,2.9,3.94,3.94,0,0,1-4.2,4h-9.49v8.79H167.9a4,4,0,0,1,3.1,1.2,4.11,4.11,0,0,1,1.1,2.8,4.41,4.41,0,0,1-.5,1.89,3.39,3.39,0,0,1-1.4,1.5,5.12,5.12,0,0,1-2.2.6H153a4.37,4.37,0,0,1-3.19-1.2A4,4,0,0,1,148.42,398.2Z" style="fill:#222d56"/><path d="M190.68,360.63a22.34,22.34,0,0,1,4.7.6,13.29,13.29,0,0,1,4.69,1.9,4,4,0,0,1,2,3.39,4.43,4.43,0,0,1-1.1,3,3.72,3.72,0,0,1-2.8,1.3,5.44,5.44,0,0,1-1.69-.3c-.6-.2-1.2-.4-1.9-.7a15.19,15.19,0,0,0-2-.6,14.92,14.92,0,0,0-2.1-.2,5.68,5.68,0,0,0-3.4,1,3.07,3.07,0,0,0-1.39,2.7c0,1.2,1.09,2.2,3.19,3s4.4,1.5,7,2.39a15.93,15.93,0,0,1,6.49,4q2.7,2.7,2.7,7.79a13,13,0,0,1-7.4,11.89,15.43,15.43,0,0,1-7.39,1.7,29.93,29.93,0,0,1-9.49-1.5c-3-1-4.6-2.69-4.6-5.09a4.17,4.17,0,0,1,1.1-2.9,3.49,3.49,0,0,1,2.8-1.2,6.8,6.8,0,0,1,1.9.3c.7.2,1.5.5,2.6.8a13.57,13.57,0,0,0,2.79.8,10.07,10.07,0,0,0,2.5.3,7.94,7.94,0,0,0,3.2-.6,3.94,3.94,0,0,0,2-1.8,4.62,4.62,0,0,0,.7-2.6,2.86,2.86,0,0,0-1.5-2.89,58.49,58.49,0,0,0-7.1-2.4c-3.69-1.2-6.39-2.5-8.09-4s-2.6-3.79-2.6-6.79a12.75,12.75,0,0,1,2-7,13.22,13.22,0,0,1,5.3-4.59A14.61,14.61,0,0,1,190.68,360.63Z" style="fill:#222d56"/><path d="M218.06,398.4V369.32h-6.3a3.43,3.43,0,0,1-2.9-1.2,4,4,0,0,1-1-2.79,5.07,5.07,0,0,1,.49-2,4,4,0,0,1,1.4-1.5,3.7,3.7,0,0,1,2.1-.6h21.28a3.94,3.94,0,0,1,2.1.6,4,4,0,0,1,1.4,1.5,4.55,4.55,0,0,1,.5,2,4,4,0,0,1-1,2.79,3.77,3.77,0,0,1-3,1.2h-6.29V398.4a4.44,4.44,0,0,1-1.2,3.29,4.14,4.14,0,0,1-3.1,1.2,4.34,4.34,0,0,1-3.19-1.2A4.13,4.13,0,0,1,218.06,398.4Z" style="fill:#222d56"/><path d="M241.34,398.4v-33a4.49,4.49,0,0,1,1.19-3.3,4.3,4.3,0,0,1,3.1-1.2,4.14,4.14,0,0,1,3.1,1.2,4.46,4.46,0,0,1,1.2,3.3v33a4.44,4.44,0,0,1-1.2,3.29,4.6,4.6,0,0,1-6.2,0A4.47,4.47,0,0,1,241.34,398.4Z" style="fill:#222d56"/><path d="M256,381.91a25.46,25.46,0,0,1,1.4-8.39,19.32,19.32,0,0,1,10.39-11.29,19.06,19.06,0,0,1,8-1.6,30.21,30.21,0,0,1,4,.3,17.64,17.64,0,0,1,4.1,1.1,7.57,7.57,0,0,1,3.1,2,4.41,4.41,0,0,1,1.29,3.09,3.62,3.62,0,0,1-1,2.7,3.11,3.11,0,0,1-2.59,1.1,6.72,6.72,0,0,1-2.6-.7c-1.1-.4-2.1-.8-2.9-1a13.66,13.66,0,0,0-3.39-.4,10.15,10.15,0,0,0-4.7,1,9.32,9.32,0,0,0-3.4,2.8,13.79,13.79,0,0,0-2.1,4.2,16.89,16.89,0,0,0-.7,5.09,14.32,14.32,0,0,0,2.9,9.09,9.74,9.74,0,0,0,8,3.7,10.5,10.5,0,0,0,3.39-.4c.8-.3,1.9-.7,3.1-1.2a8.09,8.09,0,0,1,2.8-.8,3.27,3.27,0,0,1,2.79,1.3,4.27,4.27,0,0,1,1,2.6,4.66,4.66,0,0,1-2.19,4.09,16.32,16.32,0,0,1-5.2,2.2,23,23,0,0,1-5.69.6,18.73,18.73,0,0,1-10.3-2.8,20.2,20.2,0,0,1-7.09-7.69A23.06,23.06,0,0,1,256,381.91Z" style="fill:#222d56"/><path d="M295.39,398.4v-33a4.46,4.46,0,0,1,1.2-3.3,4.29,4.29,0,0,1,3.09-1.2,4.14,4.14,0,0,1,3.1,1.2,4.46,4.46,0,0,1,1.2,3.3v33a4.44,4.44,0,0,1-1.2,3.29,4.59,4.59,0,0,1-6.19,0A4.44,4.44,0,0,1,295.39,398.4Z" style="fill:#222d56"/><path d="M311.67,398.2V365.73a4.08,4.08,0,0,1,1.3-3.2,4.54,4.54,0,0,1,3.2-1.2h9.59a24,24,0,0,1,8.69,1.5,16.92,16.92,0,0,1,6.4,4.29,18.68,18.68,0,0,1,4,6.7,26.64,26.64,0,0,1,1.3,8.79,23.39,23.39,0,0,1-1.4,8.19,17.34,17.34,0,0,1-10.29,10.49,23.65,23.65,0,0,1-8.09,1.4H316.27a5.22,5.22,0,0,1-2.1-.4,3.93,3.93,0,0,1-2.5-4.09Zm8.7-28.88V394.6h5.89a10.67,10.67,0,0,0,6.1-1.6,10.42,10.42,0,0,0,3.59-4.39,16.23,16.23,0,0,0,1.2-6.4,16.81,16.81,0,0,0-1.2-6.59,9.39,9.39,0,0,0-3.79-4.5,11.83,11.83,0,0,0-6.5-1.6h-5.29v-.2Z" style="fill:#222d56"/><path d="M352.74,398.2V366.32a5.66,5.66,0,0,1,1.2-3.69,4.27,4.27,0,0,1,3.39-1.4h14.39a3.77,3.77,0,0,1,3,1.2,4.11,4.11,0,0,1,1.1,2.8,4.51,4.51,0,0,1-.5,2,4,4,0,0,1-3.6,2.1H361.53v8.39H371a3.85,3.85,0,0,1,3.1,1.2,4.17,4.17,0,0,1,1.1,2.9,3.94,3.94,0,0,1-4.2,4h-9.49v8.79h10.69a4,4,0,0,1,3.1,1.2,4.11,4.11,0,0,1,1.1,2.8,4.41,4.41,0,0,1-.5,1.89,3.39,3.39,0,0,1-1.4,1.5,5.12,5.12,0,0,1-2.2.6h-15a4.35,4.35,0,0,1-3.19-1.2A4,4,0,0,1,352.74,398.2Z" style="fill:#222d56"/><path d="M394.9,360.63a22.34,22.34,0,0,1,4.7.6,13.29,13.29,0,0,1,4.69,1.9,4,4,0,0,1,2,3.39,4.43,4.43,0,0,1-1.1,3,3.72,3.72,0,0,1-2.8,1.3,5.55,5.55,0,0,1-1.7-.3c-.6-.2-1.19-.4-1.89-.7a15.19,15.19,0,0,0-2-.6,14.92,14.92,0,0,0-2.1-.2,5.68,5.68,0,0,0-3.4,1,3.08,3.08,0,0,0-1.4,2.7c0,1.2,1.1,2.2,3.2,3s4.4,1.5,7,2.39a15.93,15.93,0,0,1,6.49,4q2.7,2.7,2.7,7.79a13,13,0,0,1-7.4,11.89,15.43,15.43,0,0,1-7.39,1.7A29.93,29.93,0,0,1,385,402c-3-1-4.6-2.69-4.6-5.09a4.17,4.17,0,0,1,1.1-2.9,3.49,3.49,0,0,1,2.8-1.2,6.8,6.8,0,0,1,1.9.3c.7.2,1.5.5,2.6.8a13.39,13.39,0,0,0,2.79.8,10.07,10.07,0,0,0,2.5.3,7.94,7.94,0,0,0,3.2-.6,3.94,3.94,0,0,0,2-1.8,4.62,4.62,0,0,0,.7-2.6,2.86,2.86,0,0,0-1.5-2.89,58.49,58.49,0,0,0-7.1-2.4c-3.69-1.2-6.39-2.5-8.09-4s-2.6-3.79-2.6-6.79a12.75,12.75,0,0,1,2-7,13.22,13.22,0,0,1,5.3-4.59A14.91,14.91,0,0,1,394.9,360.63Z" style="fill:#222d56"/></g><g id="biodiversite"><path d="M113.85,476.73V444.26a3.94,3.94,0,0,1,1.3-3.2,4.71,4.71,0,0,1,3.29-1.1h11.09a11.44,11.44,0,0,1,5.5,1.3,10,10,0,0,1,4,3.6,9.58,9.58,0,0,1,1.5,5.29,8.61,8.61,0,0,1-5.4,8.49v.1a9.71,9.71,0,0,1,3.4,1.1,11.58,11.58,0,0,1,2.79,2.2,11.73,11.73,0,0,1,1.9,3,10.47,10.47,0,0,1,.7,3.59c0,4-1.2,7.1-3.69,9.3s-5.7,3.29-9.8,3.29h-12a4.29,4.29,0,0,1-4.59-4.49Zm8.69-29.18v8.7H127a4.68,4.68,0,0,0,3.39-1.2,4.59,4.59,0,0,0,1.3-3.4,3.87,3.87,0,0,0-1.3-3.1,4.79,4.79,0,0,0-3.39-1.1h-4.5Zm0,16.29v9.69h6.89a6,6,0,0,0,4-1.3,4.68,4.68,0,0,0,1.5-3.7,3.81,3.81,0,0,0-1.6-3.29,7.42,7.42,0,0,0-4.59-1.2h-6.2Z" style="fill:#222d56"/><path d="M149.42,477v-33a4.46,4.46,0,0,1,1.2-3.3,4.28,4.28,0,0,1,3.09-1.2,4.14,4.14,0,0,1,3.1,1.2,4.46,4.46,0,0,1,1.2,3.3v33a4.44,4.44,0,0,1-1.2,3.29,4.59,4.59,0,0,1-6.19,0A4.88,4.88,0,0,1,149.42,477Z" style="fill:#222d56"/><path d="M184.09,481.92a18.67,18.67,0,0,1-10.29-2.8,20.15,20.15,0,0,1-7.1-7.69,23.16,23.16,0,0,1-2.5-10.79,25.46,25.46,0,0,1,1.4-8.39A19.32,19.32,0,0,1,176,441a19.06,19.06,0,0,1,8-1.6,19.44,19.44,0,0,1,8,1.7,18.36,18.36,0,0,1,6.39,4.59,18.77,18.77,0,0,1,4.1,6.8,23,23,0,0,1,1.5,8.29,24.82,24.82,0,0,1-1.4,8.29,18.77,18.77,0,0,1-4.1,6.8,18.23,18.23,0,0,1-6.39,4.59A22.76,22.76,0,0,1,184.09,481.92Zm0-8.09a9.86,9.86,0,0,0,4.69-1,10.88,10.88,0,0,0,3.5-2.9,15.57,15.57,0,0,0,2.1-4.29,20.93,20.93,0,0,0,.7-5.1,18.48,18.48,0,0,0-1.2-6.69,12.05,12.05,0,0,0-3.7-4.9,9.82,9.82,0,0,0-5.89-1.8,9.62,9.62,0,0,0-5.9,1.8,10.2,10.2,0,0,0-3.7,4.9,17.92,17.92,0,0,0-1.19,6.69,15.31,15.31,0,0,0,2.79,9.49C177.89,472.63,180.59,473.83,184.09,473.83Z" style="fill:#222d56"/><path d="M210,476.83V444.36a4.08,4.08,0,0,1,1.3-3.2,4.54,4.54,0,0,1,3.2-1.2h9.59a24,24,0,0,1,8.69,1.5,16.92,16.92,0,0,1,6.4,4.29,18.68,18.68,0,0,1,4,6.7,26.64,26.64,0,0,1,1.3,8.79,23.39,23.39,0,0,1-1.4,8.19,19.22,19.22,0,0,1-4,6.4,18.88,18.88,0,0,1-6.3,4.09,23.65,23.65,0,0,1-8.09,1.4H214.56a5.22,5.22,0,0,1-2.1-.4,4.89,4.89,0,0,1-1.8-1.4A5.93,5.93,0,0,1,210,476.83Zm8.7-28.88v25.28h5.89a10.67,10.67,0,0,0,6.1-1.6,10.42,10.42,0,0,0,3.59-4.39,16.23,16.23,0,0,0,1.2-6.4,16.85,16.85,0,0,0-1.2-6.59,9.39,9.39,0,0,0-3.79-4.5,11.83,11.83,0,0,0-6.5-1.6h-5.29Z" style="fill:#222d56"/><path d="M251,477v-33a4.46,4.46,0,0,1,1.2-3.3,4.28,4.28,0,0,1,3.09-1.2,4.14,4.14,0,0,1,3.1,1.2,4.46,4.46,0,0,1,1.2,3.3v33a4.44,4.44,0,0,1-1.2,3.29,4.59,4.59,0,0,1-6.19,0A4.44,4.44,0,0,1,251,477Z" style="fill:#222d56"/><path d="M277.6,478.13l-12.69-32.28a5.5,5.5,0,0,1-.39-2.19,3.79,3.79,0,0,1,1.29-3,4.47,4.47,0,0,1,3.1-1.2c1.7,0,3,.9,3.9,2.8l9,24.08,9-24.08c.9-1.9,2.2-2.8,3.9-2.8a4.3,4.3,0,0,1,3.1,1.2,3.83,3.83,0,0,1,1.29,3,5.65,5.65,0,0,1-.4,2.19L286,478.13a6.78,6.78,0,0,1-1.6,2.49,3.67,3.67,0,0,1-2.7.9,4.14,4.14,0,0,1-2.7-.8A12.3,12.3,0,0,1,277.6,478.13Z" style="fill:#222d56"/><path d="M304,476.83V445a5.67,5.67,0,0,1,1.2-3.7,4.29,4.29,0,0,1,3.4-1.4H323a3.77,3.77,0,0,1,3,1.2,4.11,4.11,0,0,1,1.1,2.8,4.51,4.51,0,0,1-.5,2A4,4,0,0,1,323,448H312.77v8.4h9.49a3.85,3.85,0,0,1,3.1,1.19,4.17,4.17,0,0,1,1.1,2.9,3.94,3.94,0,0,1-4.2,4h-9.49v8.79h10.69a4,4,0,0,1,3.1,1.2,4.11,4.11,0,0,1,1.1,2.8,4.41,4.41,0,0,1-.5,1.89,3.39,3.39,0,0,1-1.4,1.5,5.12,5.12,0,0,1-2.2.6h-15a4.38,4.38,0,0,1-3.2-1.2A4,4,0,0,1,304,476.83Z" style="fill:#222d56"/><path d="M333.15,477V444.46a4.86,4.86,0,0,1,1.1-3.3,4.46,4.46,0,0,1,3.3-1.2h10.19c4.6,0,8.19,1.1,10.69,3.2s3.8,5.39,3.8,9.89a10.75,10.75,0,0,1-.8,4.19,8.56,8.56,0,0,1-2.3,3.3,11.05,11.05,0,0,1-3.4,2.2,14.39,14.39,0,0,1-4.19,1.2l9.89,10.49a3.56,3.56,0,0,1,1.1,2.6,4.14,4.14,0,0,1-1.3,3.09,4,4,0,0,1-3.1,1.3,4.3,4.3,0,0,1-3.39-1.5l-12.89-15.58h-.1V477a4.44,4.44,0,0,1-1.2,3.29,4.6,4.6,0,0,1-6.2,0A4.44,4.44,0,0,1,333.15,477Zm8.7-29.08v10.29h6a5.64,5.64,0,0,0,3.9-1.4,5.55,5.55,0,0,0,0-7.59,5.58,5.58,0,0,0-3.9-1.3Z" style="fill:#222d56"/><path d="M380.81,439.16a22.34,22.34,0,0,1,4.7.6,13.21,13.21,0,0,1,4.69,1.9,4,4,0,0,1,2,3.4,4.42,4.42,0,0,1-1.1,3,3.72,3.72,0,0,1-2.79,1.3,5.55,5.55,0,0,1-1.7-.3c-.6-.2-1.2-.4-1.9-.7a15.19,15.19,0,0,0-2-.6,14.92,14.92,0,0,0-2.1-.2,5.63,5.63,0,0,0-3.39,1,3.08,3.08,0,0,0-1.4,2.7c0,1.2,1.1,2.2,3.19,3s4.4,1.5,7,2.39a15.86,15.86,0,0,1,6.49,4q2.7,2.7,2.7,7.79a13,13,0,0,1-7.39,11.89,15.5,15.5,0,0,1-7.4,1.7,30,30,0,0,1-9.49-1.5c-3-1-4.6-2.69-4.6-5.09a4.17,4.17,0,0,1,1.1-2.9,3.49,3.49,0,0,1,2.8-1.2,6.8,6.8,0,0,1,1.9.3c.7.2,1.5.5,2.6.8a13.63,13.63,0,0,0,2.8.8,9.94,9.94,0,0,0,2.49.3,7.94,7.94,0,0,0,3.2-.6,3.94,3.94,0,0,0,2-1.8,4.62,4.62,0,0,0,.7-2.6,2.86,2.86,0,0,0-1.5-2.89,58.76,58.76,0,0,0-7.09-2.4c-3.7-1.2-6.4-2.5-8.1-4s-2.6-3.79-2.6-6.79a12.75,12.75,0,0,1,2-7,13.22,13.22,0,0,1,5.3-4.59A14.94,14.94,0,0,1,380.81,439.16Z" style="fill:#222d56"/><path d="M401.29,477v-33a4.46,4.46,0,0,1,1.2-3.3,4.3,4.3,0,0,1,3.1-1.2,4.14,4.14,0,0,1,3.1,1.2,4.46,4.46,0,0,1,1.2,3.3v33a4.44,4.44,0,0,1-1.2,3.29,4.6,4.6,0,0,1-6.2,0A4.44,4.44,0,0,1,401.29,477Z" style="fill:#222d56"/><path d="M424.57,477V448h-6.29a3.43,3.43,0,0,1-2.9-1.2,4,4,0,0,1-1-2.79,4.92,4.92,0,0,1,.5-2,4,4,0,0,1,1.4-1.5,3.7,3.7,0,0,1,2.1-.6h21.28a3.94,3.94,0,0,1,2.1.6,4,4,0,0,1,1.4,1.5,4.55,4.55,0,0,1,.5,2,4,4,0,0,1-1,2.79,3.77,3.77,0,0,1-3,1.2h-6.29V477a4.44,4.44,0,0,1-1.2,3.29,4.14,4.14,0,0,1-3.1,1.2,4.38,4.38,0,0,1-3.2-1.2A4.13,4.13,0,0,1,424.57,477Z" style="fill:#222d56"/><path d="M447.75,476.83V445a5.67,5.67,0,0,1,1.2-3.7,4.29,4.29,0,0,1,3.4-1.4h14.39a3.77,3.77,0,0,1,3,1.2,4.11,4.11,0,0,1,1.1,2.8,4.51,4.51,0,0,1-.5,2,4,4,0,0,1-3.59,2.1h-10.2v8.4H466a3.83,3.83,0,0,1,3.09,1.19,4.17,4.17,0,0,1,1.1,2.9,3.94,3.94,0,0,1-4.19,4h-9.5v8.79h10.6a4,4,0,0,1,3.09,1.2,4.11,4.11,0,0,1,1.1,2.8,4.41,4.41,0,0,1-.5,1.89,3.39,3.39,0,0,1-1.4,1.5,5.12,5.12,0,0,1-2.19.6h-15a4.38,4.38,0,0,1-3.2-1.2A4.2,4.2,0,0,1,447.75,476.83Zm5.8-46.46,6.89-2.8a6.61,6.61,0,0,1,2.2-.6,2.76,2.76,0,0,1,2.2,1.2,4,4,0,0,1,.9,2.4,3.24,3.24,0,0,1-2.4,3.39l-6.5,2.5c-.49.2-.79.3-1.09.4s-.4.1-.5.2-.4,0-.8,0a2.63,2.63,0,0,1-2.2-1.3,5,5,0,0,1-.9-2.89,2.42,2.42,0,0,1,1.6-2.3Z" style="fill:#222d56"/></g><g id="climat"><path d="M112.25,540.17a25.46,25.46,0,0,1,1.4-8.39A19.32,19.32,0,0,1,124,520.49a19,19,0,0,1,8-1.6,30.23,30.23,0,0,1,4,.3,17.64,17.64,0,0,1,4.1,1.1,7.6,7.6,0,0,1,3.09,2,4.36,4.36,0,0,1,1.3,3.09,3.62,3.62,0,0,1-1,2.7,3.14,3.14,0,0,1-2.6,1.1,6.72,6.72,0,0,1-2.59-.7c-1.1-.4-2.1-.8-2.9-1a13.68,13.68,0,0,0-3.4-.4,10.11,10.11,0,0,0-4.69,1,9.32,9.32,0,0,0-3.4,2.8,13.79,13.79,0,0,0-2.1,4.2,16.89,16.89,0,0,0-.7,5.09,14.33,14.33,0,0,0,2.9,9.09,9.74,9.74,0,0,0,8,3.7,10.53,10.53,0,0,0,3.4-.4c.8-.3,1.9-.7,3.1-1.2a8,8,0,0,1,2.79-.8,3.29,3.29,0,0,1,2.8,1.3,4.27,4.27,0,0,1,1,2.6,4.65,4.65,0,0,1-2.2,4.09,16.26,16.26,0,0,1-5.19,2.2,23.05,23.05,0,0,1-5.7.6,18.72,18.72,0,0,1-10.29-2.8,20.12,20.12,0,0,1-7.09-7.69A23.06,23.06,0,0,1,112.25,540.17Z" style="fill:#222d56"/><path d="M150.42,556.06V523.69a4.46,4.46,0,0,1,1.2-3.3,4.26,4.26,0,0,1,3.09-1.2,4.14,4.14,0,0,1,3.1,1.2,4.46,4.46,0,0,1,1.2,3.3v29.07H169.4a3.62,3.62,0,0,1,3.1,1.3,4.27,4.27,0,0,1,1,2.9,4.74,4.74,0,0,1-1.2,2.69,3.77,3.77,0,0,1-2.9,1.1H154.91a4.12,4.12,0,0,1-3.29-1.3A4.52,4.52,0,0,1,150.42,556.06Z" style="fill:#222d56"/><path d="M177.59,556.66v-33a4.46,4.46,0,0,1,1.2-3.3,4.3,4.3,0,0,1,3.1-1.2,4.14,4.14,0,0,1,3.1,1.2,4.49,4.49,0,0,1,1.19,3.3v33A4.49,4.49,0,0,1,185,560a4.6,4.6,0,0,1-6.2,0A4.45,4.45,0,0,1,177.59,556.66Z" style="fill:#222d56"/><path d="M192.68,556l5.39-32.37a5.5,5.5,0,0,1,1.9-3.1,5.75,5.75,0,0,1,3.8-1.4,6.07,6.07,0,0,1,3.7,1.2,5.36,5.36,0,0,1,2.09,2.9l6.8,23h.1l6.79-23a5.33,5.33,0,0,1,2.1-2.9,6.07,6.07,0,0,1,3.7-1.2,5.72,5.72,0,0,1,3.79,1.4,4.93,4.93,0,0,1,1.9,3.1l5.4,32.37c0,.2.1.6.1,1a3.77,3.77,0,0,1-1.2,3,5.09,5.09,0,0,1-6.2.1,6,6,0,0,1-1.4-3.09l-3.39-23.58H228l-6.9,24.28a4.36,4.36,0,0,1-4.59,3.29c-2.5,0-4-1.1-4.6-3.29l-7-24.28h-.1L201.37,557a5.94,5.94,0,0,1-1.3,3.09,4.23,4.23,0,0,1-3.19,1,4.43,4.43,0,0,1-3-1.1,4.06,4.06,0,0,1-1.2-3Z" style="fill:#222d56"/><path d="M244.43,555.16l11.69-31.47a8.12,8.12,0,0,1,2.4-3.5,5.66,5.66,0,0,1,3.8-1.3,5.46,5.46,0,0,1,3.79,1.3,7.35,7.35,0,0,1,2.4,3.5l11.39,31.47a6.31,6.31,0,0,1,.5,2.2,3.6,3.6,0,0,1-.6,2,5,5,0,0,1-1.5,1.4,4.55,4.55,0,0,1-2,.5,4,4,0,0,1-4.19-3l-1.7-5.39H254.32l-1.79,5.39a4,4,0,0,1-4.2,3,4.07,4.07,0,0,1-3-1.2,3.93,3.93,0,0,1-1.3-2.89C244.13,556.56,244.23,556,244.43,555.16Zm17.89-27.28-5.5,16.79h11l-5.39-16.79Z" style="fill:#222d56"/><path d="M287.69,556.66V527.58H281.4a3.43,3.43,0,0,1-2.9-1.2,4,4,0,0,1-1-2.79,4.92,4.92,0,0,1,.5-2,4,4,0,0,1,1.4-1.5,3.7,3.7,0,0,1,2.1-.6h21.28a3.94,3.94,0,0,1,2.1.6,4,4,0,0,1,1.4,1.5,4.55,4.55,0,0,1,.5,2,4,4,0,0,1-1,2.79,3.77,3.77,0,0,1-3,1.2h-6.29v29.08a4.45,4.45,0,0,1-1.2,3.29,4.14,4.14,0,0,1-3.1,1.2A4.38,4.38,0,0,1,289,560,4.15,4.15,0,0,1,287.69,556.66Z" style="fill:#222d56"/></g><g id="scale"><rect x="518.69" y="355.33" width="107.01" height="38.87" style="fill:#027d3d"/><rect x="625.7" y="355.33" width="107.01" height="38.87" style="fill:#7ab72a"/><rect x="732.7" y="355.33" width="107.01" height="38.87" style="fill:#fbc404"/><rect x="839.71" y="355.33" width="107.01" height="38.87" style="fill:#ed7a06"/><rect x="946.71" y="355.33" width="107.01" height="38.87" style="fill:#e33116"/></g><g id="scale-2"><rect x="518.69" y="521.79" width="107.01" height="38.87" style="fill:#027d3d"/><rect x="625.7" y="521.79" width="107.01" height="38.87" style="fill:#7ab72a"/><rect x="732.7" y="521.79" width="107.01" height="38.87" style="fill:#fbc404"/><rect x="839.71" y="521.79" width="107.01" height="38.87" style="fill:#ed7a06"/><rect x="946.71" y="521.79" width="107.01" height="38.87" style="fill:#e33116"/></g><g id="scale-3"><rect x="518.69" y="438.56" width="107.01" height="38.87" style="fill:#027d3d"/><rect x="625.7" y="438.56" width="107.01" height="38.87" style="fill:#7ab72a"/><rect x="732.7" y="438.56" width="107.01" height="38.87" style="fill:#fbc404"/><rect x="839.71" y="438.56" width="107.01" height="38.87" style="fill:#ed7a06"/><rect x="946.71" y="438.56" width="107.01" height="38.87" style="fill:#e33116"/></g><g id="scale-a"><rect x="519.29" y="165.2" width="107.01" height="107.01" style="fill:#027d3d"/><g style="opacity:0.5"><path d="M542,242.63,562.15,188a14.87,14.87,0,0,1,4.2-6.09,10.29,10.29,0,0,1,6.49-2.3,10.47,10.47,0,0,1,6.7,2.3,13.55,13.55,0,0,1,4.09,6.09l19.78,54.65a11.78,11.78,0,0,1,.8,3.7,5.68,5.68,0,0,1-1,3.4,8,8,0,0,1-2.49,2.4,6.57,6.57,0,0,1-3.4.8c-3.7,0-6.19-1.7-7.39-5.2l-3-9.49H559l-3,9.39a6.93,6.93,0,0,1-7.2,5.3,7.75,7.75,0,0,1-5.29-2,6.46,6.46,0,0,1-2.2-5A9.31,9.31,0,0,1,542,242.63Zm30.87-47.35-9.49,29.17h19.08L573,195.28Z" style="fill:#fff"/></g></g><g id="scale-c"><rect x="733.2" y="165.2" width="107.01" height="107.01" style="fill:#fbc404"/><g style="opacity:0.5"><path d="M756.58,216.66a41,41,0,0,1,2.5-14.59,36.73,36.73,0,0,1,7.09-11.79,31.52,31.52,0,0,1,11-7.79,33.63,33.63,0,0,1,14-2.8,43.8,43.8,0,0,1,6.89.6,36.85,36.85,0,0,1,7.1,1.8,14.87,14.87,0,0,1,5.49,3.5,7.28,7.28,0,0,1,2.2,5.39,6.74,6.74,0,0,1-1.8,4.7,5.89,5.89,0,0,1-4.4,2,14.58,14.58,0,0,1-4.49-1.09c-1.9-.8-3.6-1.3-5.1-1.8a22.3,22.3,0,0,0-5.79-.6,17.92,17.92,0,0,0-8.19,1.8,16.39,16.39,0,0,0-5.9,4.89,21.72,21.72,0,0,0-3.6,7.29,31.89,31.89,0,0,0-1.29,8.9,25.31,25.31,0,0,0,5,15.88c3.3,4.3,8,6.4,13.89,6.4a18.53,18.53,0,0,0,5.89-.7c1.5-.5,3.2-1.2,5.3-2.1a13.93,13.93,0,0,1,4.79-1.4,5.94,5.94,0,0,1,4.9,2.3,7.66,7.66,0,0,1,1.8,4.5A8.44,8.44,0,0,1,810,249a22.77,22.77,0,0,1-9,3.7,51.46,51.46,0,0,1-9.89,1.09,32.69,32.69,0,0,1-17.89-4.89A33.08,33.08,0,0,1,761,235.54,41.62,41.62,0,0,1,756.58,216.66Z" style="fill:#fff"/></g></g><g id="scale-b"><rect x="626.19" y="165.2" width="107.01" height="107.01" style="fill:#7ab72a"/><g style="opacity:0.5"><path d="M655.37,244.73V188.28a6.79,6.79,0,0,1,2.2-5.49,8.4,8.4,0,0,1,5.69-2h19.28A20.14,20.14,0,0,1,692,183a17.5,17.5,0,0,1,6.89,6.29,16.94,16.94,0,0,1,2.5,9.19c0,7-3.1,11.89-9.29,14.79v.2a17,17,0,0,1,5.89,1.9,18.4,18.4,0,0,1,4.9,3.8,17.47,17.47,0,0,1,3.29,5.19,15.88,15.88,0,0,1,1.1,6.2c0,6.89-2.1,12.28-6.39,16.08s-9.89,5.7-17,5.7H663.26a8.08,8.08,0,0,1-5.79-2.1A7.62,7.62,0,0,1,655.37,244.73Zm15.09-50.65v15.08h7.89a8,8,0,0,0,5.89-2.09,7.47,7.47,0,0,0,2.2-5.8,6.42,6.42,0,0,0-2.3-5.29,9.24,9.24,0,0,0-5.89-1.9Zm0,28.37v16.79h11.88a10.44,10.44,0,0,0,6.9-2.3,8.09,8.09,0,0,0,2.6-6.49,7,7,0,0,0-2.7-5.8c-1.8-1.4-4.5-2.1-8-2.1l-10.69-.1Z" style="fill:#fff"/></g></g><g id="scale-d"><rect x="840.2" y="165.2" width="107.01" height="107.01" style="fill:#ed7a06"/><g style="opacity:0.5"><path d="M864.78,244.83V188.58A7.29,7.29,0,0,1,867,183a7.86,7.86,0,0,1,5.6-2.2h16.68a41.87,41.87,0,0,1,15.09,2.6,30.91,30.91,0,0,1,11.19,7.39,32.78,32.78,0,0,1,6.89,11.59,45.3,45.3,0,0,1,2.3,15.19,40.75,40.75,0,0,1-2.4,14.28,30.35,30.35,0,0,1-7,11,30.76,30.76,0,0,1-11,7.1,39.94,39.94,0,0,1-14,2.5H872.88a9.71,9.71,0,0,1-3.7-.7,7,7,0,0,1-3-2.4A6.73,6.73,0,0,1,864.78,244.83Zm15-50.15v43.76H890a18.57,18.57,0,0,0,10.59-2.8,17.14,17.14,0,0,0,6.3-7.69,28,28,0,0,0,2.09-11.09,29.59,29.59,0,0,0-2.09-11.49,17,17,0,0,0-6.6-7.9,20.51,20.51,0,0,0-11.19-2.79Z" style="fill:#fff"/></g></g><g id="scale-e"><rect x="947.21" y="165.2" width="107.01" height="107.01" style="fill:#e33015"/><g style="opacity:0.5"><path d="M981.48,244.83V189.58a9.67,9.67,0,0,1,2-6.29,7.1,7.1,0,0,1,5.79-2.4h25a6.93,6.93,0,0,1,5.3,2,7.25,7.25,0,0,1,1.79,4.89,7.87,7.87,0,0,1-.79,3.4,7.18,7.18,0,0,1-2.4,2.5,7.09,7.09,0,0,1-3.9,1H996.57v14.58h16.48a7.41,7.41,0,0,1,5.5,2,6.78,6.78,0,0,1,1.9,5,6.89,6.89,0,0,1-2,4.79,7,7,0,0,1-5.4,2.1H996.57v15.29h18.58a6.93,6.93,0,0,1,5.3,2,7.25,7.25,0,0,1,1.79,4.89,8,8,0,0,1-.8,3.3,7.16,7.16,0,0,1-2.49,2.7,7.09,7.09,0,0,1-3.9,1H989.17a7.92,7.92,0,0,1-5.59-2.1A7,7,0,0,1,981.48,244.83Z" style="fill:#fff"/></g></g><g id="rond-scale"><path d="M571.24,511a29,29,0,1,0,29,29A29,29,0,0,0,571.24,511Z" style="fill:#fdfdfd"/><path d="M571.24,501a39,39,0,1,0,39,39A39,39,0,0,0,571.24,501Zm-28.87,39a29,29,0,1,1,29,29A29,29,0,0,1,542.37,540Z" style="fill:#273259"/></g><g id="rond-scale-2"><path d="M571.24,345.74a29,29,0,1,0,29,29A29,29,0,0,0,571.24,345.74Z" style="fill:#fdfdfd"/><path d="M571.24,335.75a39,39,0,1,0,39,39A39,39,0,0,0,571.24,335.75Zm-29,39a29,29,0,1,1,29,29A29,29,0,0,1,542.27,374.72Z" style="fill:#273259"/></g><g id="rond-scale-3"><path d="M571.24,429a29,29,0,1,0,29,29A29,29,0,0,0,571.24,429Z" style="fill:#fdfdfd"/><path d="M571.24,419a39,39,0,1,0,39,39A39,39,0,0,0,571.24,419Zm-29,39a29,29,0,1,1,29,29A29,29,0,0,1,542.27,458Z" style="fill:#273259"/></g><g id="cadre-mode-elevage"><path d="M1346.56,98.36H1108.77V602.92h237.79a51.83,51.83,0,0,0,51.75-51.76v-401A52,52,0,0,0,1346.56,98.36Z" style="fill:#fff"/><path d="M1108.77,620h237.79a68.8,68.8,0,0,0,68.74-68.74V150.12a68.8,68.8,0,0,0-68.74-68.74H1108.77Zm289.44-68.74A51.83,51.83,0,0,1,1346.46,603H1108.67V98.36h237.79a51.83,51.83,0,0,1,51.75,51.76Z" style="fill:#c7ddf3"/></g><g id="mode-elevage"><path d="M1184,387.41l4.6-27.68a4.59,4.59,0,0,1,1.59-2.6,4.72,4.72,0,0,1,3.2-1.2,5.39,5.39,0,0,1,3.2,1.1,4.9,4.9,0,0,1,1.8,2.5l5.89,19.68h.1l5.9-19.68a4.9,4.9,0,0,1,1.8-2.5,5,5,0,0,1,3.09-1.1,4.72,4.72,0,0,1,3.2,1.2,4.34,4.34,0,0,1,1.6,2.6l4.59,27.68v.8a3.43,3.43,0,0,1-3.59,3.59,4.14,4.14,0,0,1-2.7-.8,4.22,4.22,0,0,1-1.2-2.59l-2.9-20.19h-.1L1208.18,389a4.2,4.2,0,0,1-8,0l-6-20.78h-.1l-2.9,20.19A4.22,4.22,0,0,1,1190,391a3.61,3.61,0,0,1-2.69.8,3.54,3.54,0,0,1-2.6-1,3.38,3.38,0,0,1-1-2.59A2.71,2.71,0,0,0,1184,387.41Z" style="fill:#222d56"/><path d="M1245.85,392.1a16.37,16.37,0,0,1-8.8-2.4,16.85,16.85,0,0,1-6.09-6.59,19.31,19.31,0,0,1-2.2-9.29,20.92,20.92,0,0,1,1.2-7.2,17,17,0,0,1,3.5-5.79,14.94,14.94,0,0,1,5.39-3.9,17.36,17.36,0,0,1,6.9-1.4,16.86,16.86,0,0,1,6.79,1.4,16.13,16.13,0,0,1,5.39,3.9,18.06,18.06,0,0,1,3.5,5.79,20.76,20.76,0,0,1,.1,14.19,18.46,18.46,0,0,1-3.5,5.9,15.2,15.2,0,0,1-5.49,3.89A14.37,14.37,0,0,1,1245.85,392.1Zm0-6.89a9.13,9.13,0,0,0,4.09-.9,8.06,8.06,0,0,0,3-2.5,11.58,11.58,0,0,0,1.8-3.7,15.48,15.48,0,0,0,.6-4.39,14.85,14.85,0,0,0-1.1-5.7,10.24,10.24,0,0,0-3.2-4.19,8.59,8.59,0,0,0-5.09-1.6,8,8,0,0,0-5.1,1.6,9.08,9.08,0,0,0-3.2,4.19,14.85,14.85,0,0,0-1.1,5.7,13.16,13.16,0,0,0,2.4,8.09A8.34,8.34,0,0,0,1245.85,385.21Z" style="fill:#222d56"/><path d="M1268,387.71V359.93a4,4,0,0,1,1.09-2.8,3.69,3.69,0,0,1,2.7-1.1H1280a18.81,18.81,0,0,1,7.4,1.3,14.73,14.73,0,0,1,8.89,9.29,21.86,21.86,0,0,1,1.2,7.5,20.29,20.29,0,0,1-1.2,7.09,14.43,14.43,0,0,1-3.5,5.4,15.12,15.12,0,0,1-5.39,3.49,19.23,19.23,0,0,1-6.9,1.2h-8.59a3.92,3.92,0,0,1-1.8-.4,2.83,2.83,0,0,1-1.49-1.2A3.14,3.14,0,0,1,1268,387.71Zm7.39-24.68v21.58h5a9.36,9.36,0,0,0,5.2-1.4,8.32,8.32,0,0,0,3.1-3.8,13.45,13.45,0,0,0,1-5.49,14.84,14.84,0,0,0-1-5.7,7.9,7.9,0,0,0-3.3-3.89,10.42,10.42,0,0,0-5.49-1.4l-4.5.1Z" style="fill:#222d56"/><path d="M1303.09,387.71V360.43a4.45,4.45,0,0,1,1-3.1,3.56,3.56,0,0,1,2.9-1.2h12.29a3.25,3.25,0,0,1,2.6,1,3.58,3.58,0,0,1,.9,2.4,3.29,3.29,0,0,1-.4,1.7,4.89,4.89,0,0,1-1.2,1.3,3.83,3.83,0,0,1-1.9.5h-8.79v7.19h8.09a3.34,3.34,0,0,1,2.7,1,3.58,3.58,0,0,1,.9,2.4,3.25,3.25,0,0,1-1,2.4,3.34,3.34,0,0,1-2.7,1h-8.09v7.49h9.19a3.25,3.25,0,0,1,2.6,1,3.58,3.58,0,0,1,.9,2.4,3.13,3.13,0,0,1-.4,1.59,3.74,3.74,0,0,1-1.2,1.3,3.83,3.83,0,0,1-1.9.5h-12.79a3.62,3.62,0,0,1-2.7-1A3.29,3.29,0,0,1,1303.09,387.71Z" style="fill:#222d56"/><path d="M1132.15,439.66V411.88a3.92,3.92,0,0,1,1.1-2.79,3.65,3.65,0,0,1,2.69-1.1h8.2a18.8,18.8,0,0,1,7.39,1.3,14.66,14.66,0,0,1,8.89,9.29,21.8,21.8,0,0,1,1.2,7.49,20.35,20.35,0,0,1-1.2,7.1,14.47,14.47,0,0,1-3.5,5.39,15.15,15.15,0,0,1-5.39,3.5,19.23,19.23,0,0,1-6.9,1.2H1136a3.92,3.92,0,0,1-1.8-.4,2.87,2.87,0,0,1-1.49-1.2A3.17,3.17,0,0,1,1132.15,439.66Zm7.39-24.68v21.58h5a9.35,9.35,0,0,0,5.19-1.4,8.3,8.3,0,0,0,3.1-3.79,13.5,13.5,0,0,0,1-5.5,14.79,14.79,0,0,0-1-5.69,7.93,7.93,0,0,0-3.3-3.9,10.42,10.42,0,0,0-5.49-1.4l-4.5.1Z" style="fill:#222d56"/><path d="M1175.81,412.78l-4.2,7.5a3,3,0,0,1-1.3,1.2,3.36,3.36,0,0,1-1.5.4,3.23,3.23,0,0,1-2.39-1,3,3,0,0,1-1-2.3,5.84,5.84,0,0,1,.6-2l4.09-7.39a3.33,3.33,0,0,1,1.4-1.2,3.74,3.74,0,0,1,1.5-.5,3.25,3.25,0,0,1,2.4,1,3,3,0,0,1,1,2.3A3.25,3.25,0,0,1,1175.81,412.78Z" style="fill:#222d56"/><path d="M1181.2,439.66V412.38a4.44,4.44,0,0,1,1-3.09,3.56,3.56,0,0,1,2.9-1.2h12.29a3.25,3.25,0,0,1,2.6,1,3.58,3.58,0,0,1,.9,2.39,3.29,3.29,0,0,1-.4,1.7,4.89,4.89,0,0,1-1.2,1.3,3.83,3.83,0,0,1-1.9.5h-8.79v7.2h8.09a3.37,3.37,0,0,1,2.7,1,3.58,3.58,0,0,1,.9,2.4,3.25,3.25,0,0,1-1,2.4,3.34,3.34,0,0,1-2.7,1h-8.09v7.49h9.19a3.25,3.25,0,0,1,2.6,1,3.57,3.57,0,0,1,.89,2.4,3.15,3.15,0,0,1-.39,1.6,3.74,3.74,0,0,1-1.2,1.3,3.83,3.83,0,0,1-1.9.5H1184.9a3.62,3.62,0,0,1-2.7-1A3.3,3.3,0,0,1,1181.2,439.66Zm5-39.76,5.89-2.4a6.66,6.66,0,0,1,1.9-.5,2.42,2.42,0,0,1,1.9,1,3.68,3.68,0,0,1,.8,2.09,2.83,2.83,0,0,1-2,2.9l-5.59,2.2a9.2,9.2,0,0,1-.9.3.76.76,0,0,1-.4.1h-.6a2.55,2.55,0,0,1-1.9-1.1,4.63,4.63,0,0,1-.8-2.5,2.32,2.32,0,0,1,1.4-2Z" style="fill:#222d56"/><path d="M1206.18,439.36V411.68a3.76,3.76,0,0,1,1.1-2.79,3.62,3.62,0,0,1,2.7-1,3.58,3.58,0,0,1,2.69,1,3.7,3.7,0,0,1,1,2.79v24.88h8.8a3.38,3.38,0,0,1,2.69,1.1,3.84,3.84,0,0,1,.9,2.5,3.45,3.45,0,0,1-1,2.3,3.17,3.17,0,0,1-2.49,1h-12.39a3.76,3.76,0,0,1-2.8-1.1A4.07,4.07,0,0,1,1206.18,439.36Z" style="fill:#222d56"/><path d="M1229.36,439.66V412.38a4.44,4.44,0,0,1,1-3.09,3.56,3.56,0,0,1,2.9-1.2h12.29a3.24,3.24,0,0,1,2.59,1,3.58,3.58,0,0,1,.9,2.39,3.29,3.29,0,0,1-.4,1.7,4.89,4.89,0,0,1-1.2,1.3,3.79,3.79,0,0,1-1.89.5h-8.8v7.2h8.1a3.34,3.34,0,0,1,2.69,1,3.58,3.58,0,0,1,.9,2.4,3.25,3.25,0,0,1-1,2.4,3.32,3.32,0,0,1-2.69,1h-8.1v7.49h9.2a3.24,3.24,0,0,1,2.59,1,3.58,3.58,0,0,1,.9,2.4,3.17,3.17,0,0,1-.4,1.6,3.74,3.74,0,0,1-1.2,1.3,3.82,3.82,0,0,1-1.89.5h-12.79a3.62,3.62,0,0,1-2.7-1A3.3,3.3,0,0,1,1229.36,439.66Z" style="fill:#222d56"/><path d="M1263.13,440.86l-10.89-27.68a5.66,5.66,0,0,1-.3-1.8,3,3,0,0,1,1.2-2.49,4.49,4.49,0,0,1,2.7-1,3.68,3.68,0,0,1,3.39,2.4l7.7,20.68,7.69-20.68a3.68,3.68,0,0,1,3.4-2.4,3.92,3.92,0,0,1,2.69,1,3.07,3.07,0,0,1,1.1,2.49,3.92,3.92,0,0,1-.4,1.8l-10.89,27.68a5.52,5.52,0,0,1-1.4,2.1,3.89,3.89,0,0,1-4.59.1A6,6,0,0,1,1263.13,440.86Z" style="fill:#222d56"/><path d="M1283.91,438.56l10-27a8.17,8.17,0,0,1,2.1-3,4.63,4.63,0,0,1,3.2-1.1,5.24,5.24,0,0,1,3.3,1.1,6,6,0,0,1,2,3l9.69,27a4.54,4.54,0,0,1,.4,1.8,3.53,3.53,0,0,1-1.69,2.9,3.29,3.29,0,0,1-1.7.4,3.47,3.47,0,0,1-3.6-2.6l-1.5-4.7H1292.3l-1.49,4.6a3.4,3.4,0,0,1-3.6,2.6,3.54,3.54,0,0,1-2.6-1,3.41,3.41,0,0,1-1.1-2.5C1283.61,439.76,1283.71,439.26,1283.91,438.56Zm15.29-23.28-4.7,14.39h9.39l-4.69-14.39Z" style="fill:#222d56"/><path d="M1338.06,422.48h8.4c1.59,0,2.69.39,3.29,1.19a5.94,5.94,0,0,1,1,3.6,20.81,20.81,0,0,1-1.1,6.69,15.8,15.8,0,0,1-3.19,5.3,14.08,14.08,0,0,1-5.1,3.5,17.76,17.76,0,0,1-6.69,1.3,16.37,16.37,0,0,1-8.8-2.4,17,17,0,0,1-6.09-6.6,19.28,19.28,0,0,1-2.2-9.29,20.86,20.86,0,0,1,1.2-7.19,17,17,0,0,1,3.5-5.8,15,15,0,0,1,5.39-3.89,17.36,17.36,0,0,1,6.9-1.4,23.19,23.19,0,0,1,5.29.6,16.17,16.17,0,0,1,4.4,1.6,10,10,0,0,1,2.9,2.29,4,4,0,0,1,1.09,2.5,3.32,3.32,0,0,1-.89,2.5,2.94,2.94,0,0,1-2.2.9,6.08,6.08,0,0,1-3.2-1.2,29.12,29.12,0,0,0-3.2-1.8,10.68,10.68,0,0,0-4.09-.6,8,8,0,0,0-5.1,1.6,9.11,9.11,0,0,0-3.2,4.2,15.37,15.37,0,0,0-1.09,5.69,13.19,13.19,0,0,0,2.39,8.1,8.28,8.28,0,0,0,6.9,3.29,10.92,10.92,0,0,0,4-.8,6.8,6.8,0,0,0,3.2-2.59,7.83,7.83,0,0,0,1.2-4.4h-5a3.17,3.17,0,0,1-2.49-1,3.74,3.74,0,0,1-1-2.5,3,3,0,0,1,1-2.4A3.67,3.67,0,0,1,1338.06,422.48Z" style="fill:#222d56"/><path d="M1356,439.66V412.38a4.44,4.44,0,0,1,1-3.09,3.55,3.55,0,0,1,2.89-1.2h12.29a3.25,3.25,0,0,1,2.6,1,3.58,3.58,0,0,1,.9,2.39,3.29,3.29,0,0,1-.4,1.7,4.89,4.89,0,0,1-1.2,1.3,3.83,3.83,0,0,1-1.9.5h-8.79v7.2h8.09a3.37,3.37,0,0,1,2.7,1,3.58,3.58,0,0,1,.9,2.4,3.25,3.25,0,0,1-1,2.4,3.34,3.34,0,0,1-2.7,1h-8.09v7.49h9.19a3.25,3.25,0,0,1,2.6,1,3.58,3.58,0,0,1,.9,2.4,3.17,3.17,0,0,1-.4,1.6,3.74,3.74,0,0,1-1.2,1.3,3.83,3.83,0,0,1-1.9.5h-12.79a3.61,3.61,0,0,1-2.69-1A3.3,3.3,0,0,1,1356,439.66Z" style="fill:#222d56"/></g><g id="check"><path id="check-2" d="M1190.29,523l14-9.2a10,10,0,0,1,14.29,3.7l16.09,30.57s8.29-18.88,33.07-49.95c14.18-17.79,25.87-28.48,33.27-34.47a14.55,14.55,0,0,1,17-.9l16.49,10.59s-36.67,23.18-57.55,55.55-29.38,49.26-31.07,54.55c-8.3-2.3-24.48-7.89-24.48-7.89C1215.87,561.35,1190.29,523,1190.29,523Z" style="fill:#007c3b"/></g><g id="tete-vache"><path d="M1313.59,193.58c7.49,0,46.85-1.6,66-47.46a1.66,1.66,0,0,0-.8-2.1,1.37,1.37,0,0,0-1.5.2,119.52,119.52,0,0,1-88.12,22.18,2,2,0,0,1-1.2-.8c-1.5-3.29-13.39-11.09-31.87-11.49a1.88,1.88,0,0,0-.8.2.78.78,0,0,0-.8-.2c-18.49.4-30.28,8.3-31.87,11.49a1.33,1.33,0,0,1-1.1.8,119.72,119.72,0,0,1-88.32-22.28,1.57,1.57,0,0,0-2.2-.1,1.65,1.65,0,0,0-.3,2c19.28,45.86,58.75,47.66,66.14,47.66a1.51,1.51,0,0,1,1.5,1.2c.2,1.2.7,3,1.2,5.39-28.08-5.09-44.06,2.1-52.36,8.29a8,8,0,0,0-1,11.29,6.9,6.9,0,0,0,1.8,1.6c19.48,11.59,40.87,4.2,55.25-4.19,3.4,16.08,7.2,35.77,7.2,44.06a1.49,1.49,0,0,0,1.6,1.5,2.36,2.36,0,0,0,.79-.2,112.19,112.19,0,0,1,41.57-15.29h1.1a112.86,112.86,0,0,1,41.56,15.29,1.62,1.62,0,0,0,2.2-.5,1.88,1.88,0,0,0,.2-.8c0-8.29,3.69-28,7.19-44.06,14.29,8.29,35.67,15.78,55.25,4.19a8.16,8.16,0,0,0,2.3-11.19,8,8,0,0,0-1.5-1.7c-8.29-6.19-24.18-13.38-52.15-8.29.5-2.4,1-4.19,1.2-5.39A1.63,1.63,0,0,1,1313.59,193.58Zm-87.93,33.47a7.2,7.2,0,1,1,7.2-7.2h0a7.3,7.3,0,0,1-7.2,7.2Zm59.65,0a7.2,7.2,0,1,1,7.19-7.2h0a7.23,7.23,0,0,1-7.19,7.2Z" style="fill:#027d3d"/><path d="M1254,258.52c-26.08,0-47.26,15.09-47.26,33.67S1228,325.76,1254,325.76s47.16-15.09,47.16-33.57S1280.11,258.52,1254,258.52Zm-23.28,47.26c-4.9,0-8.89-6.1-8.89-13.59s4-13.59,8.89-13.59,8.89,6.1,8.89,13.59S1235.65,305.78,1230.76,305.78Zm46.16,0c-4.9,0-9-6.2-9-13.59s4.19-13.59,8.89-13.59,8.79,6.1,8.79,13.59S1281.81,305.78,1276.92,305.78Z" style="fill:#027d3d"/></g><g id="croix-rouge"><path d="M1194.49,568.35s39.57-41,41.86-45c-22.38-27.18-29-36.07-29-36.07,4.6-10.69,15.19-15.89,27.48-19.49,0,0,12.58,15.49,22.38,28.68,16.58-20.08,31.47-38.47,31.47-38.47s7.49,1.4,15.78,25.18c-19.48,22.88-32.07,36.67-32.07,36.67l22.88,45-18.58,14.59-24.48-36.37s-31.37,35.87-43.66,42.66C1203.38,582.43,1194.49,577.54,1194.49,568.35Z" style="fill:#e33116"/></g><g id="tidle-orange"><path d="M1323.28,545.27c-9.39,6.19-16.89,10.29-22.28,12.09a36.78,36.78,0,0,1-24.88-.6c-7.79-3-17-10.29-27.68-22.08s-20.48-19.39-29.57-22.88c-10.29-3.9-21.38.1-33.27,11.89l-5.2-19c15.29-13.79,31-17.68,47.16-11.49,8.19,3.1,18.29,10.79,30.37,23.18s20.59,19.48,25.58,21.38c8.39,3.2,19.88-.7,34.57-11.59Z" style="fill:#f07e02"/></g><g id="tete-poule"><path d="M1188.6,231.14s7.49-27.77,33.47-36.86,55.35-.4,55.35-.4,12-29.78,0-34.67-30.88,7.89-30.88,7.89-9.39-16.48-17.68-14.79-12.79,21.59-12.79,21.59-18.78-8.7-24.48.69-2.29,25.18-2.29,25.18-8.7,4.5-9.4,11.79a46.33,46.33,0,0,0,3,17.29s-12.79-5.3-11.79,7.89Z" style="fill:#00803d"/><path d="M1238.25,198.37c-33.47,2.6-45.56,40.67-45.56,40.67-32.37,12.09-32,39-32,39,73-29.77,97.81,43.26,97.81,43.26,39.67-65.64,96-67.94,96-67.94C1311.29,199.87,1271.72,195.78,1238.25,198.37Zm-8.59,39.37a6.8,6.8,0,1,1,6.79-6.8h0a6.76,6.76,0,0,1-6.79,6.6Z" style="fill:#00803d"/><path d="M1211.78,285s-18.19,51.65,25.67,48.05c9.39-.7,10.39-18,.8-30.87C1230,291.29,1211.78,285,1211.78,285Z" style="fill:#00803d"/></g><g id="tete-mouton"><path d="M1346.46,215.26c-1-1.8-4.2-2.1-9-5a126.17,126.17,0,0,0-22.88-9.19,5.21,5.21,0,0,1-3.39-6.49,23.72,23.72,0,0,0,.9-6.5,22.7,22.7,0,0,0-16.59-21.88,1.5,1.5,0,0,1-1-1.4h0a17.25,17.25,0,0,0-16.28-17.38,16.85,16.85,0,0,0-13,5.29,1.9,1.9,0,0,1-2.7.1,1.37,1.37,0,0,1-.5-.8,17,17,0,0,0-31.77-1.39,1.79,1.79,0,0,1-2.5.9c-.2-.1-.3-.2-.5-.3a17,17,0,0,0-15.48-3.3,16.73,16.73,0,0,0-12.29,16.38h0a2,2,0,0,1-1.4,1.9,22.73,22.73,0,0,0-16.19,22,27.4,27.4,0,0,0,1,6.9,3.75,3.75,0,0,1-2.5,4.69,184.26,184.26,0,0,0-28.77,10.49c-4.8,2.9-7.09,3.2-8.09,5a1.72,1.72,0,0,0,0,1.7c12,27.07,37.16,14.28,49,8.69a5.67,5.67,0,0,0,1.3-.8,2,2,0,0,1,2.7.3,2.2,2.2,0,0,1,.4,1.3,101.18,101.18,0,0,0-.6,11A74.41,74.41,0,0,0,1214,287.69a1.84,1.84,0,0,1,.3,1.9,18.51,18.51,0,0,0-1.3,7c0,12,11.59,22.08,26.68,24.67,1.5.2,3.3-1.39,2.6-2.69L1233,301a1.79,1.79,0,0,1,.9-2.5.33.33,0,0,0,.2-.09,12.93,12.93,0,0,1,12.08,2.59,2.11,2.11,0,0,0,2.4,0,13.43,13.43,0,0,1,12.19-2.59,1.8,1.8,0,0,1,1.1,2.39c0,.1-.1.1-.1.2l-9.29,17.69c-.7,1.4,1,3,2.6,2.69,15.48-2.49,27.07-12.58,27.07-24.67a18.33,18.33,0,0,0-1.6-7.7,1.82,1.82,0,0,1,.3-2,75.84,75.84,0,0,0,17-49.56,103.08,103.08,0,0,0-.8-12.39,3.13,3.13,0,0,0,1,.5c11.59,5.59,36.87,18.18,48.86-8.69A2.93,2.93,0,0,0,1346.46,215.26Zm-131,26.48a6.7,6.7,0,1,1,6.7-6.7v.1A6.68,6.68,0,0,1,1215.47,241.74Zm64.45,0a6.7,6.7,0,1,1,6.69-6.7h0a6.7,6.7,0,0,1-6.69,6.7Z" style="fill:#00803d"/></g><g id="tete-cochon"><path d="M1324.78,201.87c6.79-11,13.28-31.67,4.39-66.64,0,0-26.77,11.89-37.47,33.27a78.49,78.49,0,0,0-73.53,0c-10.89-21.38-37.67-33.27-37.67-33.27-8.89,35-2.49,55.55,4.4,66.64a78.83,78.83,0,1,0,139.88,0Zm-46.66,3.8a7,7,0,0,1,7.09,7v.3a7,7,0,0,1-14.09-.2A7.16,7.16,0,0,1,1278.12,205.67Zm-48.66.3a7,7,0,1,1-7,7A7,7,0,0,1,1229.46,206Zm25.88,86.92-.2.2c-17.19,0-31.18-12-31.18-26.78s14-26.67,31.18-26.67,31.27,11.69,31.27,26.37S1272.52,292.89,1255.34,292.89Z" style="fill:#00803d"/><path d="M1245.75,257.22a3.8,3.8,0,1,0,3.79,3.8A3.73,3.73,0,0,0,1245.75,257.22Z" style="fill:#00803d"/><path d="M1263.93,257.22a3.8,3.8,0,1,0,3.8,3.8A3.8,3.8,0,0,0,1263.93,257.22Z" style="fill:#00803d"/></g><g id="tete-chevre"><g id="FLlxi8.tif"><path d="M1254,333.65c.5-5.19-1.2-10.09,1.7-14.68,4.39-7.5,10.59-18.19-4.1-12.09-3.5,1.7-6.69-1.9-10.29-1.8-10.29-.2,7.09,14.49,3.8,28.47-25.68-3.39-24.88-32.77-30.28-52.25-3.49-16-7.09-31.87-10.59-47.86-.3-1.5-1.1-2-2.6-2-21.18.3-39.16-7.29-54-22.38-4.29-4-.7-11.29,5-10.39,16.68-.3,31.47,7.9,46.76,13.59,2.69,1,3.39,1.1,4.09-1.9,2.3-8.79,8.7-14.18,16.69-17.88,2.6-1.2,2.8-1.2,1.7-3.8-1.4-3.29-2.8-6.59-4.4-9.79-2.8-5.79-7.69-8.69-13.89-9.49-18.38-2.5-37.06-14.79-38.56-34.07.7.4,1.7.6,2.1,1.2,6.69,8.89,15.18,15.38,25.87,18.48,28.28,6.4,45.16,3.1,51.56,37.07,2.19,3,10.19,3.3,10.49-2.1,9.09-48.46,50.35-17.28,76-52.35.8-1,1.4-3,3.1-2s.4,2.6,0,3.7c-5.4,14.08-15.19,23.68-29.68,28.27-17,3.1-21,3.9-27.27,21-3.6,5,12.69,5,17.78,19.39,1.1,2.09.8,6.49,4.1,4.59,7.39-3,14.78-6,22.28-8.89,65-19.88,17.78,30.77-24,28.17-1.3.1-1.8.5-2.1,1.7-3.3,14.79-6.69,29.58-9.89,44.46C1279.32,298.29,1281.31,329.56,1254,333.65Zm-34.27-96.21c8.29.2,8.09-12.29.1-12.29S1211.68,237.44,1219.77,237.44Zm61.34,0c8.1.2,7.8-12.19,0-12.29S1272.82,237.74,1281.11,237.44Z" style="fill:#00803d"/></g></g><g id="A-petit"><circle cx="1000.44" cy="218.66" r="74.53" transform="translate(138.41 771.46) rotate(-45)" style="fill:#027d3d"/><path d="M1057.41,161.71A80.56,80.56,0,1,0,1081,218.66,80.1,80.1,0,0,0,1057.41,161.71ZM925.93,218.66a74.54,74.54,0,1,1,74.53,74.53A74.53,74.53,0,0,1,925.93,218.66Z" style="fill:#fff"/><path d="M958.4,252.93l27.68-74.74a19.07,19.07,0,0,1,5.79-8.29,14.58,14.58,0,0,1,18,0,18.26,18.26,0,0,1,5.6,8.29l27,74.74a16,16,0,0,1,1.09,5.09,8.54,8.54,0,0,1-1.29,4.7,8.28,8.28,0,0,1-3.5,3.19,9.32,9.32,0,0,1-4.7,1.1c-5.09,0-8.49-2.39-10.09-7.09L1019.85,247H981.68l-4.2,12.79q-2.25,7.19-9.89,7.19a10,10,0,0,1-7.19-2.79,9,9,0,0,1-3-6.8A18.39,18.39,0,0,1,958.4,252.93Zm42.16-64.65-13,39.87h26.08l-12.79-39.87Z" style="fill:#fff"/></g><g id="B-petit"><circle cx="1000.44" cy="218.66" r="74.53" transform="translate(138.41 771.46) rotate(-45)" style="fill:#7ab72a"/><path d="M1057.41,161.71A80.56,80.56,0,1,0,1081,218.66,80.1,80.1,0,0,0,1057.41,161.71ZM925.93,218.66a74.54,74.54,0,1,1,74.53,74.53A74.53,74.53,0,0,1,925.93,218.66Z" style="fill:#fff"/><path d="M967.39,255.82V179.29a9.55,9.55,0,0,1,3-7.49,11.21,11.21,0,0,1,7.79-2.7h26.18a27.81,27.81,0,0,1,12.89,3,22.91,22.91,0,0,1,12.69,21c0,9.49-4.2,16.18-12.69,20.08v.3a24.44,24.44,0,0,1,14.78,7.79,22.36,22.36,0,0,1,4.4,7,23.26,23.26,0,0,1,1.5,8.49c0,9.39-2.9,16.68-8.59,21.88s-13.39,7.69-23,7.69H978.28a11.34,11.34,0,0,1-7.89-2.89A9.94,9.94,0,0,1,967.39,255.82Zm20.48-68.74v20.49h10.69c3.4,0,6.1-.9,8.1-2.8s3-4.5,3-7.89a8.7,8.7,0,0,0-3.09-7.2,12.16,12.16,0,0,0-8-2.5H987.87Zm0,38.47v22.68H1004a13.61,13.61,0,0,0,9.29-3.2,11.15,11.15,0,0,0,3.6-8.79,9.52,9.52,0,0,0-3.7-7.89c-2.5-1.9-6.09-2.9-10.79-2.9l-14.49.1Z" style="fill:#fff"/></g><g id="C-petit"><circle cx="1000.44" cy="218.66" r="74.53" transform="translate(138.41 771.46) rotate(-45)" style="fill:#fbc404"/><path d="M1057.41,161.71A80.56,80.56,0,1,0,1081,218.66,80.1,80.1,0,0,0,1057.41,161.71ZM925.93,218.66a74.54,74.54,0,1,1,74.53,74.53A74.53,74.53,0,0,1,925.93,218.66Z" style="fill:#fff"/><path d="M957.1,217.36a56.15,56.15,0,0,1,3.4-19.89,47.41,47.41,0,0,1,9.79-16.18,43.31,43.31,0,0,1,15-10.69,47.44,47.44,0,0,1,19.08-3.8,68.65,68.65,0,0,1,9.49.8,47.23,47.23,0,0,1,9.69,2.5,20.52,20.52,0,0,1,7.5,4.69,10.14,10.14,0,0,1,3,7.4,9.15,9.15,0,0,1-2.49,6.49,7.9,7.9,0,0,1-6.1,2.7,19.16,19.16,0,0,1-6.19-1.5q-4.05-1.5-6.9-2.4a27.85,27.85,0,0,0-8-.9,23.25,23.25,0,0,0-11.09,2.5,23.74,23.74,0,0,0-8.09,6.7,30.43,30.43,0,0,0-4.9,9.89,43.73,43.73,0,0,0-1.7,12.19c0,8.59,2.3,15.88,6.8,21.68s10.89,8.69,19,8.69a25.36,25.36,0,0,0,8.09-1c2-.7,4.4-1.6,7.3-2.9a16.85,16.85,0,0,1,6.49-1.9,7.85,7.85,0,0,1,6.59,3.2,10.31,10.31,0,0,1,2.4,6.1,11.24,11.24,0,0,1-5.19,9.69,33.3,33.3,0,0,1-12.29,5.09,66.28,66.28,0,0,1-13.49,1.5,45.32,45.32,0,0,1-24.48-6.69A46.27,46.27,0,0,1,963,243,56.36,56.36,0,0,1,957.1,217.36Z" style="fill:#fff"/></g><g id="D-petit"><circle cx="1000.44" cy="218.66" r="74.53" transform="translate(138.41 771.46) rotate(-45)" style="fill:#ed7a06"/><path d="M1057.41,161.71A80.56,80.56,0,1,0,1081,218.66,80.1,80.1,0,0,0,1057.41,161.71ZM925.93,218.66a74.54,74.54,0,1,1,74.53,74.53A74.53,74.53,0,0,1,925.93,218.66Z" style="fill:#fff"/><path d="M962.7,255.92V179a10.49,10.49,0,0,1,3-7.69,10.25,10.25,0,0,1,7.6-3h22.78a55.18,55.18,0,0,1,20.58,3.6A41.37,41.37,0,0,1,1031.84,182a43.2,43.2,0,0,1,9.39,15.78,64.62,64.62,0,0,1,3.19,20.79,54.78,54.78,0,0,1-3.29,19.48,41.68,41.68,0,0,1-9.59,15.09,42.14,42.14,0,0,1-15,9.59,54.15,54.15,0,0,1-19.08,3.39H973.59a12.41,12.41,0,0,1-5-1,10.89,10.89,0,0,1-4.2-3.29A9.47,9.47,0,0,1,962.7,255.92Zm20.68-68.44v59.75h13.89c5.79,0,10.59-1.3,14.48-3.9a23.27,23.27,0,0,0,8.6-10.49,38.24,38.24,0,0,0,2.79-15.18,41.35,41.35,0,0,0-2.89-15.79,22.71,22.71,0,0,0-9-10.79q-6.13-3.9-15.28-3.9H983.38Z" style="fill:#fff"/></g><g id="E-petit"><circle cx="1000.44" cy="218.66" r="74.53" transform="translate(138.41 771.46) rotate(-45)" style="fill:#e33116"/><path d="M1057.41,161.71A80.56,80.56,0,1,0,1081,218.66,80.1,80.1,0,0,0,1057.41,161.71ZM925.93,218.66a74.54,74.54,0,1,1,74.53,74.53A74.53,74.53,0,0,1,925.93,218.66Z" style="fill:#fff"/><path d="M974.49,255.92V180.39a12.84,12.84,0,0,1,2.79-8.69c1.8-2.2,4.5-3.3,8-3.3h34.07c3.09,0,5.49.9,7.19,2.8a9.6,9.6,0,0,1,2.5,6.69,10.49,10.49,0,0,1-1.1,4.7,9.08,9.08,0,0,1-8.59,4.79H995.17v20h22.58c3.19,0,5.69.89,7.49,2.79a9.61,9.61,0,0,1,2.6,6.8,9.28,9.28,0,0,1-2.7,6.59,9.78,9.78,0,0,1-7.39,2.9H995.17v20.78h25.37c3.2,0,5.6.9,7.3,2.8a9.6,9.6,0,0,1,2.5,6.69,10.64,10.64,0,0,1-1.1,4.5,9,9,0,0,1-3.4,3.59,9.91,9.91,0,0,1-5.29,1.3H985.08a10.78,10.78,0,0,1-7.6-2.89A9.14,9.14,0,0,1,974.49,255.92Z" style="fill:#fff"/></g></svg>
